# xmcd
#
# Track frame offsets: 
#        150
#        16847
#        38106
#        62122
#        79390
#        102652
#        120621
#        147730
#        167738
#        194331
#        217373
#        238206
#
# Disc length: 3425 seconds
#
# Revision: 0
# Processed by: cddbd v1.5.2PL0 Copyright (c) Steve Scherf et al.
# Submitted via: ExactAudioCopy v0.95b4
#
DISCID=bb0d5f0c
DTITLE=LaSalle, Denise - Pay Before You Pump
DYEAR=2007
DGENRE=Blues
TTITLE0=Pay Before You Pump
TTITLE1=It's Goin' Down
TTITLE2=I Need A Working Man
TTITLE3=Mississippi Woman
TTITLE4=Hold On Tight
TTITLE5=Hell Sent Me You
TTITLE6=Walking On Beale Street and Crying
TTITLE7=I'm Hangin' On
TTITLE8=You Don't Live Here No More
TTITLE9=I Tried
TTITLE10=It's Goin' Down
TTITLE11=Mississippi Woman
EXTD=
EXTT0=
EXTT1=
EXTT2=
EXTT3=
EXTT4=
EXTT5=
EXTT6=
EXTT7=
EXTT8=
EXTT9=
EXTT10=
EXTT11=
PLAYORDER=
